<?xml version="1.0" encoding="UTF-8"?>
<svg width="14px" height="16px" viewBox="0 0 14 16" version="1.1" xmlns="http://www.w3.org/2000/svg" xmlns:xlink="http://www.w3.org/1999/xlink">
    <!-- Generator: sketchtool 57.1 (101010) - https://sketch.com -->
    <title>4E965FEA-2E12-41C4-9541-0DC45AD8E8EF</title>
    <desc>Created with sketchtool.</desc>
    <g id="Page-1" stroke="none" stroke-width="1" fill="none" fill-rule="evenodd">
        <g id="Demo-Control-Center-2" transform="translate(-368.000000, -770.000000)" fill="#8FA6BF">
            <g id="Group" transform="translate(368.000000, 760.000000)">
                <g id="Group-5" transform="translate(0.000000, 10.000000)">
                    <path d="M9,4 L1,4 C0.4,4 0,4.4 0,5 L0,15 C0,15.6 0.4,16 1,16 L9,16 C9.6,16 10,15.6 10,15 L10,5 C10,4.4 9.6,4 9,4" id="Fill-1"></path>
                    <path d="M13,0 L3,0 L3,2 L12,2 L12,13 L14,13 L14,1 C14,0.4 13.6,0 13,0" id="Fill-3"></path>
                </g>
            </g>
        </g>
    </g>
</svg>