<?xml version="1.0" encoding="UTF-8"?>
<svg width="17px" height="16px" viewBox="0 0 17 16" version="1.1" xmlns="http://www.w3.org/2000/svg" xmlns:xlink="http://www.w3.org/1999/xlink">
    <!-- Generator: sketchtool 57.1 (101010) - https://sketch.com -->
    <title>155E4DAD-6E5B-4BB5-B26D-ED7DA334D846</title>
    <desc>Created with sketchtool.</desc>
    <defs>
        <polygon id="path-1" points="0 0.6 12.1 0.6 12.1 12 0 12"></polygon>
    </defs>
    <g id="Page-1" stroke="none" stroke-width="1" fill="none" fill-rule="evenodd">
        <g id="Demo-Control-Center-2" transform="translate(-669.000000, -770.000000)">
            <g id="Group" transform="translate(368.000000, 760.000000)">
                <g id="Group-6" transform="translate(301.000000, 10.000000)">
                    <g id="Group-3" transform="translate(0.000000, 4.000000)">
                        <mask id="mask-2" fill="white">
                            <use xlink:href="#path-1"></use>
                        </mask>
                        <g id="Clip-2"></g>
                        <path d="M4.55,12 C3.35,12 2.25,11.5 1.35,10.7 C-0.45,8.9 -0.45,6.1 1.35,4.3 L2.05,3.6 L3.45,5 L2.75,5.7 C1.75,6.7 1.75,8.3 2.75,9.3 C3.75,10.3 5.35,10.3 6.35,9.3 L9.35,6.3 C10.35,5.3 10.35,3.7 9.35,2.7 L8.65,2 L10.05,0.6 L10.75,1.3 C12.55,3.1 12.55,5.9 10.75,7.7 L7.75,10.7 C6.95,11.5 5.75,12 4.55,12" id="Fill-1" fill="#8FA6BF" mask="url(#mask-2)"></path>
                    </g>
                    <path d="M6.05,11.4004 L5.35,10.7004 C3.55,8.9004 3.55,6.1004 5.35,4.2994 L8.35,1.2994 C9.25,0.4004 10.35,0.0004 11.55,0.0004 C12.75,0.0004 13.85,0.5004 14.75,1.2994 C16.55,3.1004 16.55,5.9004 14.75,7.7004 L14.05,8.4004 L12.65,7.0004 L13.35,6.2994 C14.35,5.2994 14.35,3.7004 13.35,2.7004 C12.35,1.7004 10.75,1.7004 9.75,2.7004 L6.75,5.7004 C5.75,6.7004 5.75,8.2994 6.75,9.2994 L7.45,10.0004 L6.05,11.4004 Z" id="Fill-4" fill="#8FA6BF"></path>
                </g>
            </g>
        </g>
    </g>
</svg>