<?xml version="1.0" encoding="UTF-8"?>
<svg width="312px" height="46px" viewBox="0 0 312 46" version="1.1" xmlns="http://www.w3.org/2000/svg" xmlns:xlink="http://www.w3.org/1999/xlink">
    <!-- Generator: Sketch 57.1 (83088) - https://sketch.com -->
    <title>logo4</title>
    <desc>Created with Sketch.</desc>
    <g id="Page-1" stroke="none" stroke-width="1" fill="none" fill-rule="evenodd">
        <g id="Insurance-Login-Copy" transform="translate(-716.000000, -122.000000)">
            <g id="logo4" transform="translate(716.000000, 122.000000)">
                <g id="Group-2-Copy">
                    <g id="Group-Copy">
                        <g id="Group-3">
                            <polygon id="Fill-1" fill="#5AAAFA" points="19.3512546 0.000118494424 0 19.3524187 0 45.6956343 6.50453067 45.6956343 6.50453067 22.047493 23.9507435 4.60058318"></polygon>
                            <polygon id="Fill-2" fill="#01478D" points="30.6450395 0.000118494424 7.98588522 22.662177 7.98588522 45.6956343 42.0130925 45.6956343 42.0127904 22.6615962 30.6455739 11.2951696 26.0458295 15.8945655 35.5087941 25.3574837 35.5087941 39.1914057 14.4899047 39.1914057 14.4901603 25.3556018 30.6455739 9.20030437 43.4925999 22.047493 43.4925999 45.6956343 49.9971306 45.6956343 49.9971306 19.3532551"></polygon>
                        </g>
                    </g>
                </g>
                <path d="M66.58,16.72 L66.58,15.58 L82.99,15.58 L82.99,16.72 L75.43,16.72 L75.43,37 L74.11,37 L74.11,16.72 L66.58,16.72 Z M85.39,25 L85.48,25 C85.6200007,24.4999975 85.8749981,24.0300022 86.245,23.59 C86.6150018,23.1499978 87.0649973,22.7700016 87.595,22.45 C88.1250026,22.1299984 88.7149967,21.8850008 89.365,21.715 C90.0150032,21.5449991 90.6899965,21.4699999 91.39,21.49 L91.39,22.63 C90.789997,22.5499996 90.1050038,22.609999 89.335,22.81 C88.5649961,23.010001 87.8300035,23.4499966 87.13,24.13 C86.8499986,24.4300015 86.605001,24.7199986 86.395,25 C86.1849989,25.2800014 86.0100007,25.5899983 85.87,25.93 C85.7299993,26.2700017 85.6200004,26.6499979 85.54,27.07 C85.4599996,27.4900021 85.4100001,27.9899971 85.39,28.57 L85.39,37 L84.25,37 L84.25,21.58 L85.39,21.58 L85.39,25 Z M104.8,37 L103.66,37 L103.66,33.7 L103.6,33.7 C103.399999,34.2800029 103.115002,34.7949977 102.745,35.245 C102.374998,35.6950022 101.945002,36.08 101.455,36.4 C100.964998,36.7200016 100.430003,36.9599992 99.85,37.12 C99.2699971,37.2800008 98.680003,37.36 98.08,37.36 C97.1799955,37.36 96.4150031,37.2500011 95.785,37.03 C95.1549968,36.8099989 94.640002,36.5200018 94.24,36.16 C93.839998,35.7999982 93.5250011,35.3950022 93.295,34.945 C93.0649988,34.4949977 92.9000005,34.0400023 92.8,33.58 C92.6999995,33.1199977 92.6400001,32.6750021 92.62,32.245 C92.5999999,31.8149978 92.59,31.4400016 92.59,31.12 L92.59,21.58 L93.73,21.58 L93.73,31.33 C93.73,31.730002 93.7599997,32.2149971 93.82,32.785 C93.8800003,33.3550028 94.0549985,33.9049973 94.345,34.435 C94.6350014,34.9650026 95.0699971,35.4199981 95.65,35.8 C96.2300029,36.1800019 97.0499947,36.37 98.11,36.37 C98.9700043,36.37 99.7449965,36.2100016 100.435,35.89 C101.125003,35.5699984 101.709998,35.1250028 102.19,34.555 C102.670002,33.9849971 103.034999,33.3050039 103.285,32.515 C103.535001,31.724996 103.66,30.8600047 103.66,29.92 L103.66,21.58 L104.8,21.58 L104.8,37 Z M108.7,31.87 C108.74,32.5900036 108.899999,33.2249972 109.18,33.775 C109.460001,34.3250027 109.824998,34.794998 110.275,35.185 C110.725002,35.5750019 111.249997,35.869999 111.85,36.07 C112.450003,36.270001 113.099996,36.37 113.8,36.37 C114.300002,36.37 114.834997,36.3250004 115.405,36.235 C115.975003,36.1449995 116.504998,35.9800012 116.995,35.74 C117.485002,35.4999988 117.889998,35.1650021 118.21,34.735 C118.530002,34.3049978 118.69,33.7600033 118.69,33.1 C118.69,32.2399957 118.430003,31.5900022 117.91,31.15 C117.389997,30.7099978 116.735004,30.3700012 115.945,30.13 C115.154996,29.8899988 114.305005,29.6950007 113.395,29.545 C112.484995,29.3949992 111.635004,29.1700015 110.845,28.87 C110.054996,28.5699985 109.400003,28.1450027 108.88,27.595 C108.359997,27.0449972 108.1,26.2400053 108.1,25.18 C108.1,24.4199962 108.269998,23.7850025 108.61,23.275 C108.950002,22.7649974 109.384997,22.3600015 109.915,22.06 C110.445003,21.7599985 111.039997,21.5450006 111.7,21.415 C112.360003,21.2849993 113.019997,21.22 113.68,21.22 C114.480004,21.22 115.229996,21.3099991 115.93,21.49 C116.630003,21.6700009 117.234997,21.959998 117.745,22.36 C118.255003,22.760002 118.654999,23.2699969 118.945,23.89 C119.235001,24.5100031 119.38,25.2599956 119.38,26.14 L118.24,26.14 C118.24,25.4399965 118.125001,24.8400025 117.895,24.34 C117.664999,23.8399975 117.345002,23.4350015 116.935,23.125 C116.524998,22.8149984 116.040003,22.5850007 115.48,22.435 C114.919997,22.2849992 114.320003,22.21 113.68,22.21 C113.159997,22.21 112.635003,22.2599995 112.105,22.36 C111.574997,22.4600005 111.100002,22.6299988 110.68,22.87 C110.259998,23.1100012 109.915001,23.4199981 109.645,23.8 C109.374999,24.1800019 109.24,24.6399973 109.24,25.18 C109.24,25.8000031 109.389998,26.2999981 109.69,26.68 C109.990001,27.0600019 110.384998,27.3649988 110.875,27.595 C111.365002,27.8250011 111.914997,28.0099993 112.525,28.15 C113.135003,28.2900007 113.749997,28.4299993 114.37,28.57 C115.130004,28.7100007 115.844997,28.874999 116.515,29.065 C117.185003,29.2550009 117.764998,29.5149983 118.255,29.845 C118.745002,30.1750016 119.129999,30.5999974 119.41,31.12 C119.690001,31.6400026 119.83,32.299996 119.83,33.1 C119.83,33.9400042 119.640002,34.6299973 119.26,35.17 C118.879998,35.7100027 118.400003,36.1449983 117.82,36.475 C117.239997,36.8050016 116.595004,37.0349993 115.885,37.165 C115.174996,37.2950006 114.480003,37.36 113.8,37.36 C112.919996,37.36 112.105004,37.2450011 111.355,37.015 C110.604996,36.7849988 109.950003,36.4350023 109.39,35.965 C108.829997,35.4949976 108.390002,34.9200034 108.07,34.24 C107.749998,33.5599966 107.58,32.7700045 107.56,31.87 L108.7,31.87 Z M128.26,22.57 L124.9,22.57 L124.9,33.34 C124.9,33.9600031 124.969999,34.4499982 125.11,34.81 C125.250001,35.1700018 125.464999,35.444999 125.755,35.635 C126.045001,35.8250009 126.394998,35.9399998 126.805,35.98 C127.215002,36.0200002 127.689997,36.0300001 128.23,36.01 L128.23,37 C127.649997,37.0400002 127.085003,37.0350002 126.535,36.985 C125.984997,36.9349997 125.500002,36.7850012 125.08,36.535 C124.659998,36.2849987 124.325001,35.9100025 124.075,35.41 C123.824999,34.9099975 123.72,34.2200044 123.76,33.34 L123.76,22.57 L120.91,22.57 L120.91,21.58 L123.76,21.58 L123.76,16.78 L124.9,16.78 L124.9,21.58 L128.26,21.58 L128.26,22.57 Z M131.08,15.58 L134.98,15.58 L141.73,33.58 L148.51,15.58 L152.41,15.58 L152.41,37 L149.71,37 L149.71,19.18 L149.65,19.18 L142.96,37 L140.53,37 L133.84,19.18 L133.78,19.18 L133.78,37 L131.08,37 L131.08,15.58 Z M167.5,27.76 C167.46,27.159997 167.325001,26.5900027 167.095,26.05 C166.864999,25.5099973 166.555002,25.0450019 166.165,24.655 C165.774998,24.264998 165.315003,23.9550011 164.785,23.725 C164.254997,23.4949988 163.670003,23.38 163.03,23.38 C162.369997,23.38 161.775003,23.4949988 161.245,23.725 C160.714997,23.9550011 160.260002,24.269998 159.88,24.67 C159.499998,25.070002 159.200001,25.5349973 158.98,26.065 C158.759999,26.5950026 158.63,27.159997 158.59,27.76 L167.5,27.76 Z M169.96,32.08 C169.619998,33.8200087 168.870006,35.13 167.71,36.01 C166.549994,36.8900044 165.090009,37.33 163.33,37.33 C162.089994,37.33 161.015005,37.13 160.105,36.73 C159.194995,36.329998 158.430003,35.7700036 157.81,35.05 C157.189997,34.3299964 156.725002,33.470005 156.415,32.47 C156.104998,31.469995 155.93,30.3800059 155.89,29.2 C155.89,28.0199941 156.069998,26.9400049 156.43,25.96 C156.790002,24.9799951 157.294997,24.13 157.945,23.41 C158.595003,22.6899964 159.364996,22.13 160.255,21.73 C161.145004,21.329998 162.119995,21.13 163.18,21.13 C164.560007,21.13 165.704995,21.4149971 166.615,21.985 C167.525005,22.5550028 168.254997,23.2799956 168.805,24.16 C169.355003,25.0400044 169.734999,25.9999948 169.945,27.04 C170.155001,28.0800052 170.24,29.0699953 170.2,30.01 L158.59,30.01 C158.57,30.6900034 158.649999,31.3349969 158.83,31.945 C159.010001,32.555003 159.299998,33.0949976 159.7,33.565 C160.100002,34.0350023 160.609997,34.4099986 161.23,34.69 C161.850003,34.9700014 162.579996,35.11 163.42,35.11 C164.500005,35.11 165.384997,34.8600025 166.075,34.36 C166.765003,33.8599975 167.219999,33.1000051 167.44,32.08 L169.96,32.08 Z M172.99,15.58 L177.7,15.58 L177.7,37 L172.99,37 L172.99,15.58 Z M181.39,21.49 L185.44,21.49 L185.44,23.65 L185.53,23.65 C186.070003,22.7499955 186.769996,22.095002 187.63,21.685 C188.490004,21.2749979 189.369995,21.07 190.27,21.07 C191.410006,21.07 192.344996,21.2249984 193.075,21.535 C193.805004,21.8450015 194.379998,22.2749972 194.8,22.825 C195.220002,23.3750027 195.514999,24.044996 195.685,24.835 C195.855001,25.6250039 195.94,26.4999952 195.94,27.46 L195.94,37 L191.68,37 L191.68,28.24 C191.68,26.9599936 191.480002,26.0050031 191.08,25.375 C190.679998,24.7449968 189.970005,24.43 188.95,24.43 C187.789994,24.43 186.950003,24.7749965 186.43,25.465 C185.909997,26.1550034 185.65,27.2899921 185.65,28.87 L185.65,37 L181.39,37 L181.39,21.49 Z M202.48,31.96 C202.48,32.4200023 202.574999,32.8149983 202.765,33.145 C202.955001,33.4750016 203.199998,33.7449989 203.5,33.955 C203.800001,34.165001 204.144998,34.3199995 204.535,34.42 C204.925002,34.5200005 205.329998,34.57 205.75,34.57 C206.050001,34.57 206.364998,34.5350003 206.695,34.465 C207.025002,34.3949996 207.324999,34.2850007 207.595,34.135 C207.865001,33.9849992 208.089999,33.7850012 208.27,33.535 C208.450001,33.2849987 208.54,32.9700019 208.54,32.59 C208.54,31.9499968 208.115004,31.4700016 207.265,31.15 C206.414996,30.8299984 205.230008,30.5100016 203.71,30.19 C203.089997,30.0499993 202.485003,29.8850009 201.895,29.695 C201.304997,29.504999 200.780002,29.2550015 200.32,28.945 C199.859998,28.6349984 199.490001,28.2450023 199.21,27.775 C198.93,27.3049976 198.79,26.7300034 198.79,26.05 C198.79,25.049995 198.984998,24.2300032 199.375,23.59 C199.765002,22.9499968 200.279997,22.4450018 200.92,22.075 C201.560003,21.7049981 202.279996,21.4450007 203.08,21.295 C203.880004,21.1449992 204.699996,21.07 205.54,21.07 C206.380004,21.07 207.194996,21.1499992 207.985,21.31 C208.775004,21.4700008 209.479997,21.7399981 210.1,22.12 C210.720003,22.5000019 211.234998,23.0049968 211.645,23.635 C212.055002,24.2650031 212.3,25.0599952 212.38,26.02 L208.33,26.02 C208.27,25.1999959 207.960003,24.6450014 207.4,24.355 C206.839997,24.0649985 206.180004,23.92 205.42,23.92 C205.179999,23.92 204.920001,23.9349998 204.64,23.965 C204.359999,23.9950001 204.105001,24.0599995 203.875,24.16 C203.644999,24.2600005 203.450001,24.404999 203.29,24.595 C203.129999,24.7850009 203.05,25.0399984 203.05,25.36 C203.05,25.7400019 203.189999,26.0499988 203.47,26.29 C203.750001,26.5300012 204.114998,26.7249992 204.565,26.875 C205.015002,27.0250007 205.529997,27.1599994 206.11,27.28 C206.690003,27.4000006 207.279997,27.5299993 207.88,27.67 C208.500003,27.8100007 209.104997,27.979999 209.695,28.18 C210.285003,28.380001 210.809998,28.6449983 211.27,28.975 C211.730002,29.3050016 212.099999,29.7149975 212.38,30.205 C212.660001,30.6950024 212.8,31.2999964 212.8,32.02 C212.8,33.0400051 212.595002,33.8949965 212.185,34.585 C211.774998,35.2750034 211.240003,35.8299979 210.58,36.25 C209.919997,36.6700021 209.165004,36.9649991 208.315,37.135 C207.464996,37.3050008 206.600004,37.39 205.72,37.39 C204.819995,37.39 203.940004,37.3000009 203.08,37.12 C202.219996,36.9399991 201.455003,36.6400021 200.785,36.22 C200.114997,35.7999979 199.565002,35.2450034 199.135,34.555 C198.704998,33.8649965 198.47,33.0000052 198.43,31.96 L202.48,31.96 Z M229.84,37 L225.79,37 L225.79,34.84 L225.7,34.84 C225.159997,35.7400045 224.460004,36.389998 223.6,36.79 C222.739996,37.190002 221.860004,37.39 220.96,37.39 C219.819994,37.39 218.885004,37.2400015 218.155,36.94 C217.424996,36.6399985 216.850002,36.2150027 216.43,35.665 C216.009998,35.1149972 215.715001,34.4450039 215.545,33.655 C215.374999,32.864996 215.29,31.99 215.29,31.03 L215.29,21.49 L219.55,21.49 L219.55,30.25 C219.55,31.5300064 219.749998,32.4849968 220.15,33.115 C220.550002,33.7450031 221.259995,34.06 222.28,34.06 C223.440006,34.06 224.279997,33.7150034 224.8,33.025 C225.320003,32.3349965 225.58,31.2000079 225.58,29.62 L225.58,21.49 L229.84,21.49 L229.84,37 Z M233.08,21.49 L237.13,21.49 L237.13,24.37 L237.19,24.37 C237.390001,23.8899976 237.659998,23.445002 238,23.035 C238.340002,22.6249979 238.729998,22.2750014 239.17,21.985 C239.610002,21.6949985 240.08,21.4700008 240.58,21.31 C241.08,21.1499992 241.599997,21.07 242.14,21.07 C242.420001,21.07 242.729998,21.1199995 243.07,21.22 L243.07,25.18 C242.869999,25.1399998 242.630001,25.1050001 242.35,25.075 C242.069999,25.0449998 241.800001,25.03 241.54,25.03 C240.759996,25.03 240.100003,25.1599987 239.56,25.42 C239.019997,25.6800013 238.585002,26.0349977 238.255,26.485 C237.924998,26.9350022 237.690001,27.459997 237.55,28.06 C237.409999,28.660003 237.34,29.3099965 237.34,30.01 L237.34,37 L233.08,37 L233.08,21.49 Z M244.57,26.26 C244.63,25.259995 244.879998,24.4300033 245.32,23.77 C245.760002,23.1099967 246.319997,22.580002 247,22.18 C247.680003,21.779998 248.444996,21.4950008 249.295,21.325 C250.145004,21.1549991 250.999996,21.07 251.86,21.07 C252.640004,21.07 253.429996,21.1249994 254.23,21.235 C255.030004,21.3450005 255.759997,21.5599984 256.42,21.88 C257.080003,22.2000016 257.619998,22.6449971 258.04,23.215 C258.460002,23.7850028 258.67,24.5399953 258.67,25.48 L258.67,33.55 C258.67,34.2500035 258.71,34.9199968 258.79,35.56 C258.87,36.2000032 259.009999,36.6799984 259.21,37 L254.89,37 C254.81,36.7599988 254.745,36.5150012 254.695,36.265 C254.645,36.0149987 254.61,35.7600013 254.59,35.5 C253.909997,36.2000035 253.110005,36.6899986 252.19,36.97 C251.269995,37.2500014 250.330005,37.39 249.37,37.39 C248.629996,37.39 247.940003,37.3000009 247.3,37.12 C246.659997,36.9399991 246.100002,36.6600019 245.62,36.28 C245.139998,35.8999981 244.765001,35.4200029 244.495,34.84 C244.224999,34.2599971 244.09,33.57 244.09,32.77 C244.09,31.8899956 244.244998,31.1650028 244.555,30.595 C244.865002,30.0249971 245.264998,29.57 245.755,29.23 C246.245002,28.8899983 246.804997,28.6350008 247.435,28.465 C248.065003,28.2949991 248.699997,28.1600005 249.34,28.06 C249.980003,27.9599995 250.609997,27.8800003 251.23,27.82 C251.850003,27.7599997 252.399998,27.6700006 252.88,27.55 C253.360002,27.4299994 253.739999,27.2550011 254.02,27.025 C254.300001,26.7949988 254.43,26.4600022 254.41,26.02 C254.41,25.5599977 254.335001,25.1950013 254.185,24.925 C254.034999,24.6549986 253.835001,24.4450007 253.585,24.295 C253.334999,24.1449992 253.045002,24.0450002 252.715,23.995 C252.384998,23.9449997 252.030002,23.92 251.65,23.92 C250.809996,23.92 250.150002,24.0999982 249.67,24.46 C249.189998,24.8200018 248.91,25.4199958 248.83,26.26 L244.57,26.26 Z M254.41,29.41 C254.229999,29.5700008 254.005001,29.6949995 253.735,29.785 C253.464999,29.8750004 253.175002,29.9499997 252.865,30.01 C252.554998,30.0700003 252.230002,30.1199998 251.89,30.16 C251.549998,30.2000002 251.210002,30.2499997 250.87,30.31 C250.549998,30.3700003 250.235002,30.4499995 249.925,30.55 C249.614998,30.6500005 249.345001,30.7849991 249.115,30.955 C248.884999,31.1250008 248.700001,31.3399987 248.56,31.6 C248.419999,31.8600013 248.35,32.189998 248.35,32.59 C248.35,32.9700019 248.419999,33.2899987 248.56,33.55 C248.700001,33.8100013 248.889999,34.0149992 249.13,34.165 C249.370001,34.3150007 249.649998,34.4199997 249.97,34.48 C250.290002,34.5400003 250.619998,34.57 250.96,34.57 C251.800004,34.57 252.449998,34.4300014 252.91,34.15 C253.370002,33.8699986 253.709999,33.5350019 253.93,33.145 C254.150001,32.754998 254.285,32.360002 254.335,31.96 C254.385,31.559998 254.41,31.2400012 254.41,31 L254.41,29.41 Z M261.97,21.49 L266.02,21.49 L266.02,23.65 L266.11,23.65 C266.650003,22.7499955 267.349996,22.095002 268.21,21.685 C269.070004,21.2749979 269.949995,21.07 270.85,21.07 C271.990006,21.07 272.924996,21.2249984 273.655,21.535 C274.385004,21.8450015 274.959998,22.2749972 275.38,22.825 C275.800002,23.3750027 276.094999,24.044996 276.265,24.835 C276.435001,25.6250039 276.52,26.4999952 276.52,27.46 L276.52,37 L272.26,37 L272.26,28.24 C272.26,26.9599936 272.060002,26.0050031 271.66,25.375 C271.259998,24.7449968 270.550005,24.43 269.53,24.43 C268.369994,24.43 267.530003,24.7749965 267.01,25.465 C266.489997,26.1550034 266.23,27.2899921 266.23,28.87 L266.23,37 L261.97,37 L261.97,21.49 Z M290.32,26.95 C290.039999,25.1699911 288.990009,24.28 287.17,24.28 C286.489997,24.28 285.920002,24.4349984 285.46,24.745 C284.999998,25.0550015 284.625001,25.4549975 284.335,25.945 C284.044999,26.4350024 283.840001,26.974997 283.72,27.565 C283.599999,28.1550029 283.54,28.7399971 283.54,29.32 C283.54,29.8800028 283.599999,30.4499971 283.72,31.03 C283.840001,31.6100029 284.034999,32.1349976 284.305,32.605 C284.575001,33.0750023 284.939998,33.4599985 285.4,33.76 C285.860002,34.0600015 286.419997,34.21 287.08,34.21 C288.100005,34.21 288.884997,33.9250028 289.435,33.355 C289.985003,32.7849971 290.329999,32.0200048 290.47,31.06 L294.58,31.06 C294.299999,33.1200103 293.500007,34.6899946 292.18,35.77 C290.859993,36.8500054 289.17001,37.39 287.11,37.39 C285.949994,37.39 284.885005,37.1950019 283.915,36.805 C282.944995,36.414998 282.120003,35.8700035 281.44,35.17 C280.759997,34.4699965 280.230002,33.6350048 279.85,32.665 C279.469998,31.6949951 279.28,30.6300058 279.28,29.47 C279.28,28.269994 279.454998,27.1550051 279.805,26.125 C280.155002,25.0949948 280.669997,24.2050037 281.35,23.455 C282.030003,22.7049962 282.859995,22.1200021 283.84,21.7 C284.820005,21.2799979 285.939994,21.07 287.2,21.07 C288.120005,21.07 289.004996,21.1899988 289.855,21.43 C290.705004,21.6700012 291.464997,22.0349975 292.135,22.525 C292.805003,23.0150024 293.349998,23.6249963 293.77,24.355 C294.190002,25.0850036 294.43,25.949995 294.49,26.95 L290.32,26.95 Z M307.42,27.58 C307.219999,26.4999946 306.865003,25.6800028 306.355,25.12 C305.844997,24.5599972 305.070005,24.28 304.03,24.28 C303.349997,24.28 302.785002,24.3949988 302.335,24.625 C301.884998,24.8550011 301.525001,25.1399983 301.255,25.48 C300.984999,25.8200017 300.795001,26.1799981 300.685,26.56 C300.574999,26.9400019 300.51,27.28 300.49,27.58 L307.42,27.58 Z M300.49,30.28 C300.55,31.6600069 300.899997,32.6599969 301.54,33.28 C302.180003,33.9000031 303.099994,34.21 304.3,34.21 C305.160004,34.21 305.899997,33.9950021 306.52,33.565 C307.140003,33.1349978 307.519999,32.6800024 307.66,32.2 L311.41,32.2 C310.809997,34.0600093 309.890006,35.389996 308.65,36.19 C307.409994,36.990004 305.910009,37.39 304.15,37.39 C302.929994,37.39 301.830005,37.1950019 300.85,36.805 C299.869995,36.414998 299.040003,35.8600036 298.36,35.14 C297.679997,34.4199964 297.155002,33.560005 296.785,32.56 C296.414998,31.559995 296.23,30.460006 296.23,29.26 C296.23,28.0999942 296.419998,27.020005 296.8,26.02 C297.180002,25.019995 297.719996,24.1550036 298.42,23.425 C299.120003,22.6949963 299.954995,22.1200021 300.925,21.7 C301.895005,21.2799979 302.969994,21.07 304.15,21.07 C305.470007,21.07 306.619995,21.3249974 307.6,21.835 C308.580005,22.3450025 309.384997,23.0299957 310.015,23.89 C310.645003,24.7500043 311.099999,25.7299945 311.38,26.83 C311.660001,27.9300055 311.76,29.079994 311.68,30.28 L300.49,30.28 Z" id="TrustMeInsurance" fill="#222222" fill-rule="nonzero"></path>
            </g>
        </g>
    </g>
</svg>