<?xml version="1.0" encoding="UTF-8"?>
<svg width="251px" height="42px" viewBox="0 0 251 42" version="1.1" xmlns="http://www.w3.org/2000/svg" xmlns:xlink="http://www.w3.org/1999/xlink">
    <!-- Generator: Sketch 57.1 (83088) - https://sketch.com -->
    <title>logo3</title>
    <desc>Created with Sketch.</desc>
    <g id="Page-1" stroke="none" stroke-width="1" fill="none" fill-rule="evenodd">
        <g id="Insurance-Login-Copy" transform="translate(-710.000000, -244.000000)">
            <g id="logo3" transform="translate(710.000000, 244.000000)">
                <path d="M72.58,11.72 L72.58,10.58 L88.99,10.58 L88.99,11.72 L81.43,11.72 L81.43,32 L80.11,32 L80.11,11.72 L72.58,11.72 Z M91.39,20 L91.48,20 C91.6200007,19.4999975 91.8749981,19.0300022 92.245,18.59 C92.6150018,18.1499978 93.0649973,17.7700016 93.595,17.45 C94.1250026,17.1299984 94.7149967,16.8850008 95.365,16.715 C96.0150032,16.5449991 96.6899965,16.4699999 97.39,16.49 L97.39,17.63 C96.789997,17.5499996 96.1050038,17.609999 95.335,17.81 C94.5649961,18.010001 93.8300035,18.4499966 93.13,19.13 C92.8499986,19.4300015 92.605001,19.7199986 92.395,20 C92.1849989,20.2800014 92.0100007,20.5899983 91.87,20.93 C91.7299993,21.2700017 91.6200004,21.6499979 91.54,22.07 C91.4599996,22.4900021 91.4100001,22.9899971 91.39,23.57 L91.39,32 L90.25,32 L90.25,16.58 L91.39,16.58 L91.39,20 Z M110.8,32 L109.66,32 L109.66,28.7 L109.6,28.7 C109.399999,29.2800029 109.115002,29.7949977 108.745,30.245 C108.374998,30.6950022 107.945002,31.08 107.455,31.4 C106.964998,31.7200016 106.430003,31.9599992 105.85,32.12 C105.269997,32.2800008 104.680003,32.36 104.08,32.36 C103.179995,32.36 102.415003,32.2500011 101.785,32.03 C101.154997,31.8099989 100.640002,31.5200018 100.24,31.16 C99.839998,30.7999982 99.5250011,30.3950022 99.295,29.945 C99.0649988,29.4949977 98.9000005,29.0400023 98.8,28.58 C98.6999995,28.1199977 98.6400001,27.6750021 98.62,27.245 C98.5999999,26.8149978 98.59,26.4400016 98.59,26.12 L98.59,16.58 L99.73,16.58 L99.73,26.33 C99.73,26.730002 99.7599997,27.2149971 99.82,27.785 C99.8800003,28.3550028 100.054999,28.9049973 100.345,29.435 C100.635001,29.9650026 101.069997,30.4199981 101.65,30.8 C102.230003,31.1800019 103.049995,31.37 104.11,31.37 C104.970004,31.37 105.744997,31.2100016 106.435,30.89 C107.125003,30.5699984 107.709998,30.1250028 108.19,29.555 C108.670002,28.9849971 109.034999,28.3050039 109.285,27.515 C109.535001,26.724996 109.66,25.8600047 109.66,24.92 L109.66,16.58 L110.8,16.58 L110.8,32 Z M114.7,26.87 C114.74,27.5900036 114.899999,28.2249972 115.18,28.775 C115.460001,29.3250027 115.824998,29.794998 116.275,30.185 C116.725002,30.5750019 117.249997,30.869999 117.85,31.07 C118.450003,31.270001 119.099996,31.37 119.8,31.37 C120.300002,31.37 120.834997,31.3250004 121.405,31.235 C121.975003,31.1449995 122.504998,30.9800012 122.995,30.74 C123.485002,30.4999988 123.889998,30.1650021 124.21,29.735 C124.530002,29.3049978 124.69,28.7600033 124.69,28.1 C124.69,27.2399957 124.430003,26.5900022 123.91,26.15 C123.389997,25.7099978 122.735004,25.3700012 121.945,25.13 C121.154996,24.8899988 120.305005,24.6950007 119.395,24.545 C118.484995,24.3949992 117.635004,24.1700015 116.845,23.87 C116.054996,23.5699985 115.400003,23.1450027 114.88,22.595 C114.359997,22.0449972 114.1,21.2400053 114.1,20.18 C114.1,19.4199962 114.269998,18.7850025 114.61,18.275 C114.950002,17.7649974 115.384997,17.3600015 115.915,17.06 C116.445003,16.7599985 117.039997,16.5450006 117.7,16.415 C118.360003,16.2849993 119.019997,16.22 119.68,16.22 C120.480004,16.22 121.229996,16.3099991 121.93,16.49 C122.630003,16.6700009 123.234997,16.959998 123.745,17.36 C124.255003,17.760002 124.654999,18.2699969 124.945,18.89 C125.235001,19.5100031 125.38,20.2599956 125.38,21.14 L124.24,21.14 C124.24,20.4399965 124.125001,19.8400025 123.895,19.34 C123.664999,18.8399975 123.345002,18.4350015 122.935,18.125 C122.524998,17.8149984 122.040003,17.5850007 121.48,17.435 C120.919997,17.2849992 120.320003,17.21 119.68,17.21 C119.159997,17.21 118.635003,17.2599995 118.105,17.36 C117.574997,17.4600005 117.100002,17.6299988 116.68,17.87 C116.259998,18.1100012 115.915001,18.4199981 115.645,18.8 C115.374999,19.1800019 115.24,19.6399973 115.24,20.18 C115.24,20.8000031 115.389998,21.2999981 115.69,21.68 C115.990001,22.0600019 116.384998,22.3649988 116.875,22.595 C117.365002,22.8250011 117.914997,23.0099993 118.525,23.15 C119.135003,23.2900007 119.749997,23.4299993 120.37,23.57 C121.130004,23.7100007 121.844997,23.874999 122.515,24.065 C123.185003,24.2550009 123.764998,24.5149983 124.255,24.845 C124.745002,25.1750016 125.129999,25.5999974 125.41,26.12 C125.690001,26.6400026 125.83,27.299996 125.83,28.1 C125.83,28.9400042 125.640002,29.6299973 125.26,30.17 C124.879998,30.7100027 124.400003,31.1449983 123.82,31.475 C123.239997,31.8050016 122.595004,32.0349993 121.885,32.165 C121.174996,32.2950006 120.480003,32.36 119.8,32.36 C118.919996,32.36 118.105004,32.2450011 117.355,32.015 C116.604996,31.7849988 115.950003,31.4350023 115.39,30.965 C114.829997,30.4949976 114.390002,29.9200034 114.07,29.24 C113.749998,28.5599966 113.58,27.7700045 113.56,26.87 L114.7,26.87 Z M134.26,17.57 L130.9,17.57 L130.9,28.34 C130.9,28.9600031 130.969999,29.4499982 131.11,29.81 C131.250001,30.1700018 131.464999,30.444999 131.755,30.635 C132.045001,30.8250009 132.394998,30.9399998 132.805,30.98 C133.215002,31.0200002 133.689997,31.0300001 134.23,31.01 L134.23,32 C133.649997,32.0400002 133.085003,32.0350002 132.535,31.985 C131.984997,31.9349997 131.500002,31.7850012 131.08,31.535 C130.659998,31.2849987 130.325001,30.9100025 130.075,30.41 C129.824999,29.9099975 129.72,29.2200044 129.76,28.34 L129.76,17.57 L126.91,17.57 L126.91,16.58 L129.76,16.58 L129.76,11.78 L130.9,11.78 L130.9,16.58 L134.26,16.58 L134.26,17.57 Z M137.08,10.58 L140.98,10.58 L147.73,28.58 L154.51,10.58 L158.41,10.58 L158.41,32 L155.71,32 L155.71,14.18 L155.65,14.18 L148.96,32 L146.53,32 L139.84,14.18 L139.78,14.18 L139.78,32 L137.08,32 L137.08,10.58 Z M173.5,22.76 C173.46,22.159997 173.325001,21.5900027 173.095,21.05 C172.864999,20.5099973 172.555002,20.0450019 172.165,19.655 C171.774998,19.264998 171.315003,18.9550011 170.785,18.725 C170.254997,18.4949988 169.670003,18.38 169.03,18.38 C168.369997,18.38 167.775003,18.4949988 167.245,18.725 C166.714997,18.9550011 166.260002,19.269998 165.88,19.67 C165.499998,20.070002 165.200001,20.5349973 164.98,21.065 C164.759999,21.5950026 164.63,22.159997 164.59,22.76 L173.5,22.76 Z M175.96,27.08 C175.619998,28.8200087 174.870006,30.13 173.71,31.01 C172.549994,31.8900044 171.090009,32.33 169.33,32.33 C168.089994,32.33 167.015005,32.13 166.105,31.73 C165.194995,31.329998 164.430003,30.7700036 163.81,30.05 C163.189997,29.3299964 162.725002,28.470005 162.415,27.47 C162.104998,26.469995 161.93,25.3800059 161.89,24.2 C161.89,23.0199941 162.069998,21.9400049 162.43,20.96 C162.790002,19.9799951 163.294997,19.13 163.945,18.41 C164.595003,17.6899964 165.364996,17.13 166.255,16.73 C167.145004,16.329998 168.119995,16.13 169.18,16.13 C170.560007,16.13 171.704995,16.4149971 172.615,16.985 C173.525005,17.5550028 174.254997,18.2799956 174.805,19.16 C175.355003,20.0400044 175.734999,20.9999948 175.945,22.04 C176.155001,23.0800052 176.24,24.0699953 176.2,25.01 L164.59,25.01 C164.57,25.6900034 164.649999,26.3349969 164.83,26.945 C165.010001,27.555003 165.299998,28.0949976 165.7,28.565 C166.100002,29.0350023 166.609997,29.4099986 167.23,29.69 C167.850003,29.9700014 168.579996,30.11 169.42,30.11 C170.500005,30.11 171.384997,29.8600025 172.075,29.36 C172.765003,28.8599975 173.219999,28.1000051 173.44,27.08 L175.96,27.08 Z M183.7,19.25 L188.47,19.25 C189.310004,19.25 189.999997,19.050002 190.54,18.65 C191.080003,18.249998 191.35,17.6000045 191.35,16.7 C191.35,16.1999975 191.260001,15.7900016 191.08,15.47 C190.899999,15.1499984 190.660001,14.9000009 190.36,14.72 C190.059998,14.5399991 189.715002,14.4150003 189.325,14.345 C188.934998,14.2749996 188.530002,14.24 188.11,14.24 L183.7,14.24 L183.7,19.25 Z M178.99,10.58 L189.07,10.58 C190.090005,10.58 191.019996,10.6699991 191.86,10.85 C192.700004,11.0300009 193.419997,11.3249979 194.02,11.735 C194.620003,12.145002 195.084998,12.6899966 195.415,13.37 C195.745002,14.0500034 195.91,14.889995 195.91,15.89 C195.91,16.9700054 195.665002,17.8699964 195.175,18.59 C194.684998,19.3100036 193.960005,19.8999977 193,20.36 C194.320007,20.7400019 195.304997,21.4049952 195.955,22.355 C196.605003,23.3050047 196.93,24.4499933 196.93,25.79 C196.93,26.8700054 196.720002,27.804996 196.3,28.595 C195.879998,29.3850039 195.315004,30.0299975 194.605,30.53 C193.894996,31.0300025 193.085005,31.3999988 192.175,31.64 C191.264995,31.8800012 190.330005,32 189.37,32 L178.99,32 L178.99,10.58 Z M183.7,28.34 L188.74,28.34 C189.2,28.34 189.639998,28.2950004 190.06,28.205 C190.480002,28.1149995 190.849998,27.965001 191.17,27.755 C191.490002,27.5449989 191.744999,27.2600018 191.935,26.9 C192.125001,26.5399982 192.22,26.0800028 192.22,25.52 C192.22,24.4199945 191.910003,23.6350023 191.29,23.165 C190.669997,22.6949976 189.850005,22.46 188.83,22.46 L183.7,22.46 L183.7,28.34 Z M199.48,21.26 C199.54,20.259995 199.789998,19.4300033 200.23,18.77 C200.670002,18.1099967 201.229997,17.580002 201.91,17.18 C202.590003,16.779998 203.354996,16.4950008 204.205,16.325 C205.055004,16.1549991 205.909996,16.07 206.77,16.07 C207.550004,16.07 208.339996,16.1249994 209.14,16.235 C209.940004,16.3450005 210.669997,16.5599984 211.33,16.88 C211.990003,17.2000016 212.529998,17.6449971 212.95,18.215 C213.370002,18.7850028 213.58,19.5399953 213.58,20.48 L213.58,28.55 C213.58,29.2500035 213.62,29.9199968 213.7,30.56 C213.78,31.2000032 213.919999,31.6799984 214.12,32 L209.8,32 C209.72,31.7599988 209.655,31.5150012 209.605,31.265 C209.555,31.0149987 209.52,30.7600013 209.5,30.5 C208.819997,31.2000035 208.020005,31.6899986 207.1,31.97 C206.179995,32.2500014 205.240005,32.39 204.28,32.39 C203.539996,32.39 202.850003,32.3000009 202.21,32.12 C201.569997,31.9399991 201.010002,31.6600019 200.53,31.28 C200.049998,30.8999981 199.675001,30.4200029 199.405,29.84 C199.134999,29.2599971 199,28.57 199,27.77 C199,26.8899956 199.154998,26.1650028 199.465,25.595 C199.775002,25.0249971 200.174998,24.57 200.665,24.23 C201.155002,23.8899983 201.714997,23.6350008 202.345,23.465 C202.975003,23.2949991 203.609997,23.1600005 204.25,23.06 C204.890003,22.9599995 205.519997,22.8800003 206.14,22.82 C206.760003,22.7599997 207.309998,22.6700006 207.79,22.55 C208.270002,22.4299994 208.649999,22.2550011 208.93,22.025 C209.210001,21.7949988 209.34,21.4600022 209.32,21.02 C209.32,20.5599977 209.245001,20.1950013 209.095,19.925 C208.944999,19.6549986 208.745001,19.4450007 208.495,19.295 C208.244999,19.1449992 207.955002,19.0450002 207.625,18.995 C207.294998,18.9449997 206.940002,18.92 206.56,18.92 C205.719996,18.92 205.060002,19.0999982 204.58,19.46 C204.099998,19.8200018 203.82,20.4199958 203.74,21.26 L199.48,21.26 Z M209.32,24.41 C209.139999,24.5700008 208.915001,24.6949995 208.645,24.785 C208.374999,24.8750004 208.085002,24.9499997 207.775,25.01 C207.464998,25.0700003 207.140002,25.1199998 206.8,25.16 C206.459998,25.2000002 206.120002,25.2499997 205.78,25.31 C205.459998,25.3700003 205.145002,25.4499995 204.835,25.55 C204.524998,25.6500005 204.255001,25.7849991 204.025,25.955 C203.794999,26.1250008 203.610001,26.3399987 203.47,26.6 C203.329999,26.8600013 203.26,27.189998 203.26,27.59 C203.26,27.9700019 203.329999,28.2899987 203.47,28.55 C203.610001,28.8100013 203.799999,29.0149992 204.04,29.165 C204.280001,29.3150007 204.559998,29.4199997 204.88,29.48 C205.200002,29.5400003 205.529998,29.57 205.87,29.57 C206.710004,29.57 207.359998,29.4300014 207.82,29.15 C208.280002,28.8699986 208.619999,28.5350019 208.84,28.145 C209.060001,27.754998 209.195,27.360002 209.245,26.96 C209.295,26.559998 209.32,26.2400012 209.32,26 L209.32,24.41 Z M216.88,16.49 L220.93,16.49 L220.93,18.65 L221.02,18.65 C221.560003,17.7499955 222.259996,17.095002 223.12,16.685 C223.980004,16.2749979 224.859995,16.07 225.76,16.07 C226.900006,16.07 227.834996,16.2249984 228.565,16.535 C229.295004,16.8450015 229.869998,17.2749972 230.29,17.825 C230.710002,18.3750027 231.004999,19.044996 231.175,19.835 C231.345001,20.6250039 231.43,21.4999952 231.43,22.46 L231.43,32 L227.17,32 L227.17,23.24 C227.17,21.9599936 226.970002,21.0050031 226.57,20.375 C226.169998,19.7449968 225.460005,19.43 224.44,19.43 C223.279994,19.43 222.440003,19.7749965 221.92,20.465 C221.399997,21.1550034 221.14,22.2899921 221.14,23.87 L221.14,32 L216.88,32 L216.88,16.49 Z M235.06,10.58 L239.32,10.58 L239.32,22.07 L244.69,16.49 L249.73,16.49 L243.88,22.19 L250.39,32 L245.23,32 L240.97,25.07 L239.32,26.66 L239.32,32 L235.06,32 L235.06,10.58 Z" id="TrustMeBank" fill="#222222" fill-rule="nonzero"></path>
                <g id="Group-4-Copy">
                    <polygon id="Fill-1" fill="#5AAAFA" points="11 10 21 10 21 24.9996617 11 32"></polygon>
                    <polygon id="Fill-2" fill="#5AAAFA" points="23 5 33 5 33 21.3817315 29.6441006 18.4916756 23 23"></polygon>
                    <polygon id="Fill-3" fill="#5AAAFA" points="35 0 35 23.896347 39.6405788 28 45 23.4959536 45 0"></polygon>
                    <polygon id="Fill-4" fill="#00468C" points="47.2312906 19.083091 49.8617705 21.794579 39.7508516 30.226688 29.7351459 21.4369798 0 42 28.9650446 26.654757 39.9947043 38.4145309 54.2375717 26.3041202 56.6352657 28.7752102 61 15"></polygon>
                </g>
            </g>
        </g>
    </g>
</svg>