<?xml version="1.0" encoding="UTF-8"?>
<svg width="209px" height="38px" viewBox="0 0 209 38" version="1.1" xmlns="http://www.w3.org/2000/svg" xmlns:xlink="http://www.w3.org/1999/xlink">
    <!-- Generator: Sketch 57.1 (83088) - https://sketch.com -->
    <title>Group</title>
    <desc>Created with Sketch.</desc>
    <defs>
        <polygon id="path-1" points="0 0.198645602 32 0.198645602 32 12 0 12"></polygon>
    </defs>
    <g id="Page-1" stroke="none" stroke-width="1" fill="none" fill-rule="evenodd">
        <g id="hacker-view" transform="translate(-132.000000, -52.000000)">
            <g id="Group" transform="translate(132.000000, 52.000000)">
                <g id="Group-3" transform="translate(53.000000, 0.000000)" fill="#FFFFFF" fill-rule="nonzero">
                    <path d="M6.554,20.038 L10.092,20.038 C10.6140026,20.038 11.1166643,19.9993337 11.6,19.922 C12.0833358,19.8446663 12.5086648,19.6948344 12.876,19.4725 C13.2433352,19.2501656 13.5381656,18.936002 13.7605,18.53 C13.9828344,18.123998 14.094,17.5923366 14.094,16.935 C14.094,16.2776634 13.9828344,15.746002 13.7605,15.34 C13.5381656,14.933998 13.2433352,14.6198344 12.876,14.3975 C12.5086648,14.1751656 12.0833358,14.0253337 11.6,13.948 C11.1166643,13.8706663 10.6140026,13.832 10.092,13.832 L6.554,13.832 L6.554,20.038 Z M2.001,10.294 L11.339,10.294 C12.6343398,10.294 13.7363288,10.4824981 14.645,10.8595 C15.5536712,11.2365019 16.2931638,11.7343302 16.8635,12.353 C17.4338362,12.9716698 17.8494987,13.6773294 18.1105,14.47 C18.3715013,15.2626706 18.502,16.0843291 18.502,16.935 C18.502,17.7663375 18.3715013,18.5831627 18.1105,19.3855 C17.8494987,20.1878373 17.4338362,20.8983302 16.8635,21.517 C16.2931638,22.1356698 15.5536712,22.6334981 14.645,23.0105 C13.7363288,23.3875019 12.6343398,23.576 11.339,23.576 L6.554,23.576 L6.554,31 L2.001,31 L2.001,10.294 Z M20.909,10.294 L25.027,10.294 L25.027,18.095 L25.114,18.095 C25.6360026,17.2249956 26.3029959,16.5918353 27.115,16.1955 C27.9270041,15.7991647 28.7196628,15.601 29.493,15.601 C30.5950055,15.601 31.4988298,15.7508318 32.2045,16.0505 C32.9101702,16.3501682 33.465998,16.7658307 33.872,17.2975 C34.278002,17.8291693 34.5631658,18.4768295 34.7275,19.2405 C34.8918342,20.0041705 34.974,20.8499954 34.974,21.778 L34.974,31 L30.856,31 L30.856,22.532 C30.856,21.2946605 30.6626686,20.371503 30.276,19.7625 C29.8893314,19.153497 29.2030049,18.849 28.217,18.849 C27.0956611,18.849 26.2836692,19.1824967 25.781,19.8495 C25.2783308,20.5165033 25.027,21.613659 25.027,23.141 L25.027,31 L20.909,31 L20.909,10.294 Z M42.34,13.687 L38.222,13.687 L38.222,10.294 L42.34,10.294 L42.34,13.687 Z M38.222,16.007 L42.34,16.007 L42.34,31 L38.222,31 L38.222,16.007 Z M48.778,26.128 C48.778,26.5726689 48.8698324,26.9544984 49.0535,27.2735 C49.2371676,27.5925016 49.4739986,27.853499 49.764,28.0565 C50.0540015,28.259501 50.3874981,28.4093328 50.7645,28.506 C51.1415019,28.6026672 51.532998,28.651 51.939,28.651 C52.2290015,28.651 52.5334984,28.617167 52.8525,28.5495 C53.1715016,28.481833 53.4614987,28.3755007 53.7225,28.2305 C53.9835013,28.0854993 54.2009991,27.8921679 54.375,27.6505 C54.5490009,27.4088321 54.636,27.1043352 54.636,26.737 C54.636,26.1183302 54.2251708,25.6543349 53.4035,25.345 C52.5818292,25.0356651 51.4363407,24.7263349 49.967,24.417 C49.3676637,24.281666 48.7828362,24.1221676 48.2125,23.9385 C47.6421638,23.7548324 47.1346689,23.5131682 46.69,23.2135 C46.2453311,22.9138318 45.887668,22.5368356 45.617,22.0825 C45.346332,21.6281644 45.211,21.0723366 45.211,20.415 C45.211,19.4483285 45.3994981,18.6556698 45.7765,18.037 C46.1535019,17.4183302 46.6513302,16.9301685 47.27,16.5725 C47.8886698,16.2148315 48.5846628,15.9635007 49.358,15.8185 C50.1313372,15.6734993 50.9239959,15.601 51.736,15.601 C52.5480041,15.601 53.3358295,15.6783326 54.0995,15.833 C54.8631705,15.9876674 55.5446637,16.2486648 56.144,16.616 C56.7433363,16.9833352 57.2411647,17.471497 57.6375,18.0805 C58.0338353,18.689503 58.2706663,19.4579954 58.348,20.386 L54.433,20.386 C54.3749997,19.5933294 54.075336,19.0568347 53.534,18.7765 C52.992664,18.4961653 52.3546703,18.356 51.62,18.356 C51.3879988,18.356 51.136668,18.3704999 50.866,18.3995 C50.595332,18.4285001 50.3488344,18.4913328 50.1265,18.588 C49.9041656,18.6846671 49.7156674,18.8248324 49.561,19.0085 C49.4063326,19.1921676 49.329,19.4386651 49.329,19.748 C49.329,20.1153352 49.464332,20.4149988 49.735,20.647 C50.005668,20.8790012 50.3584978,21.0674993 50.7935,21.2125 C51.2285022,21.3575007 51.7263305,21.4879994 52.287,21.604 C52.8476695,21.7200006 53.4179971,21.845666 53.998,21.981 C54.5973363,22.116334 55.1821638,22.2806657 55.7525,22.474 C56.3228362,22.6673343 56.8303311,22.9234984 57.275,23.2425 C57.7196689,23.5615016 58.077332,23.957831 58.348,24.4315 C58.618668,24.905169 58.754,25.4899965 58.754,26.186 C58.754,27.1720049 58.5558353,27.9984967 58.1595,28.6655 C57.7631647,29.3325033 57.2460032,29.868998 56.608,30.275 C55.9699968,30.681002 55.2401708,30.9661658 54.4185,31.1305 C53.5968292,31.2948342 52.7606709,31.377 51.91,31.377 C51.0399957,31.377 50.1893375,31.2900009 49.358,31.116 C48.5266625,30.9419991 47.7871699,30.652002 47.1395,30.246 C46.4918301,29.839998 45.9601687,29.3035033 45.5445,28.6365 C45.1288313,27.9694967 44.9016669,27.1333384 44.863,26.128 L48.778,26.128 Z M61.161,10.294 L65.279,10.294 L65.279,18.095 L65.366,18.095 C65.8880026,17.2249956 66.5549959,16.5918353 67.367,16.1955 C68.1790041,15.7991647 68.9716628,15.601 69.745,15.601 C70.8470055,15.601 71.7508298,15.7508318 72.4565,16.0505 C73.1621702,16.3501682 73.717998,16.7658307 74.124,17.2975 C74.530002,17.8291693 74.8151658,18.4768295 74.9795,19.2405 C75.1438342,20.0041705 75.226,20.8499954 75.226,21.778 L75.226,31 L71.108,31 L71.108,22.532 C71.108,21.2946605 70.9146686,20.371503 70.528,19.7625 C70.1413314,19.153497 69.4550049,18.849 68.469,18.849 C67.3476611,18.849 66.5356692,19.1824967 66.033,19.8495 C65.5303308,20.5165033 65.279,21.613659 65.279,23.141 L65.279,31 L61.161,31 L61.161,10.294 Z M89.349,23.518 C89.349,22.8799968 89.281334,22.2710029 89.146,21.691 C89.010666,21.1109971 88.7980015,20.5986689 88.508,20.154 C88.2179986,19.7093311 87.8555022,19.3565013 87.4205,19.0955 C86.9854978,18.8344987 86.4586698,18.704 85.84,18.704 C85.2406637,18.704 84.7186689,18.8344987 84.274,19.0955 C83.8293311,19.3565013 83.4620015,19.7093311 83.172,20.154 C82.8819985,20.5986689 82.669334,21.1109971 82.534,21.691 C82.398666,22.2710029 82.331,22.8799968 82.331,23.518 C82.331,24.1366698 82.398666,24.7359971 82.534,25.316 C82.669334,25.8960029 82.8819985,26.4083311 83.172,26.853 C83.4620015,27.2976689 83.8293311,27.6504987 84.274,27.9115 C84.7186689,28.1725013 85.2406637,28.303 85.84,28.303 C86.4586698,28.303 86.9854978,28.1725013 87.4205,27.9115 C87.8555022,27.6504987 88.2179986,27.2976689 88.508,26.853 C88.7980015,26.4083311 89.010666,25.8960029 89.146,25.316 C89.281334,24.7359971 89.349,24.1366698 89.349,23.518 Z M78.358,10.294 L82.476,10.294 L82.476,17.834 L82.534,17.834 C83.0366692,17.0606628 83.7181624,16.4951685 84.5785,16.1375 C85.4388376,15.7798315 86.3329954,15.601 87.261,15.601 C88.0150038,15.601 88.7593297,15.7556651 89.494,16.065 C90.2286703,16.3743349 90.8908304,16.8479968 91.4805,17.486 C92.0701696,18.1240032 92.5486648,18.9408284 92.916,19.9365 C93.2833352,20.9321716 93.467,22.1163265 93.467,23.489 C93.467,24.8616735 93.2833352,26.0458284 92.916,27.0415 C92.5486648,28.0371716 92.0701696,28.8539968 91.4805,29.492 C90.8908304,30.1300032 90.2286703,30.6036651 89.494,30.913 C88.7593297,31.2223349 88.0150038,31.377 87.261,31.377 C86.1589945,31.377 85.1730043,31.2030017 84.303,30.855 C83.4329957,30.5069983 82.7756689,29.9173375 82.331,29.086 L82.273,29.086 L82.273,31 L78.358,31 L78.358,10.294 Z M99.731,23.518 C99.731,24.1173363 99.7889994,24.7021638 99.905,25.2725 C100.021001,25.8428362 100.219165,26.3551644 100.4995,26.8095 C100.779835,27.2638356 101.151998,27.626332 101.616,27.897 C102.080002,28.167668 102.659997,28.303 103.356,28.303 C104.052003,28.303 104.636831,28.167668 105.1105,27.897 C105.584169,27.626332 105.961165,27.2638356 106.2415,26.8095 C106.521835,26.3551644 106.719999,25.8428362 106.836,25.2725 C106.952001,24.7021638 107.01,24.1173363 107.01,23.518 C107.01,22.9186637 106.952001,22.3290029 106.836,21.749 C106.719999,21.1689971 106.521835,20.6566689 106.2415,20.212 C105.961165,19.7673311 105.584169,19.4048347 105.1105,19.1245 C104.636831,18.8441653 104.052003,18.704 103.356,18.704 C102.659997,18.704 102.080002,18.8441653 101.616,19.1245 C101.151998,19.4048347 100.779835,19.7673311 100.4995,20.212 C100.219165,20.6566689 100.021001,21.1689971 99.905,21.749 C99.7889994,22.3290029 99.731,22.9186637 99.731,23.518 Z M95.613,23.518 C95.613,22.3193273 95.7966648,21.2318382 96.164,20.2555 C96.5313352,19.2791618 97.0533299,18.4478368 97.73,17.7615 C98.4066701,17.0751632 99.2186619,16.5435019 100.166,16.1665 C101.113338,15.7894981 102.176661,15.601 103.356,15.601 C104.535339,15.601 105.603495,15.7894981 106.5605,16.1665 C107.517505,16.5435019 108.33433,17.0751632 109.011,17.7615 C109.68767,18.4478368 110.209665,19.2791618 110.577,20.2555 C110.944335,21.2318382 111.128,22.3193273 111.128,23.518 C111.128,24.7166727 110.944335,25.7993285 110.577,26.766 C110.209665,27.7326715 109.68767,28.5591632 109.011,29.2455 C108.33433,29.9318368 107.517505,30.4586648 106.5605,30.826 C105.603495,31.1933352 104.535339,31.377 103.356,31.377 C102.176661,31.377 101.113338,31.1933352 100.166,30.826 C99.2186619,30.4586648 98.4066701,29.9318368 97.73,29.2455 C97.0533299,28.5591632 96.5313352,27.7326715 96.164,26.766 C95.7966648,25.7993285 95.613,24.7166727 95.613,23.518 Z M113.622,20.618 C113.68,19.6513285 113.921665,18.8490032 114.347,18.211 C114.772335,17.5729968 115.313663,17.0606686 115.971,16.674 C116.628337,16.2873314 117.367829,16.0118342 118.1895,15.8475 C119.011171,15.6831658 119.837663,15.601 120.669,15.601 C121.423004,15.601 122.186663,15.6541661 122.96,15.7605 C123.733337,15.8668339 124.438997,16.0746651 125.077,16.384 C125.715003,16.6933349 126.236998,17.1234972 126.643,17.6745 C127.049002,18.2255028 127.252,18.9553288 127.252,19.864 L127.252,27.665 C127.252,28.34167 127.290666,28.9893302 127.368,29.608 C127.445334,30.2266698 127.580666,30.6906651 127.774,31 L123.598,31 C123.520666,30.7679988 123.457834,30.5311679 123.4095,30.2895 C123.361166,30.0478321 123.327333,29.8013346 123.308,29.55 C122.650663,30.22667 121.877338,30.700332 120.988,30.971 C120.098662,31.241668 119.190005,31.377 118.262,31.377 C117.546663,31.377 116.87967,31.2900009 116.261,31.116 C115.64233,30.9419991 115.101002,30.6713352 114.637,30.304 C114.172998,29.9366648 113.810501,29.4726695 113.5495,28.912 C113.288499,28.3513305 113.158,27.6843372 113.158,26.911 C113.158,26.0603291 113.307832,25.3595028 113.6075,24.8085 C113.907168,24.2574972 114.293831,23.8176683 114.7675,23.489 C115.241169,23.1603317 115.782497,22.9138342 116.3915,22.7495 C117.000503,22.5851658 117.61433,22.4546671 118.233,22.358 C118.85167,22.2613329 119.460664,22.1840003 120.06,22.126 C120.659336,22.0679997 121.190998,21.9810006 121.655,21.865 C122.119002,21.7489994 122.486332,21.5798344 122.757,21.3575 C123.027668,21.1351656 123.153333,20.8113355 123.134,20.386 C123.134,19.9413311 123.061501,19.5885013 122.9165,19.3275 C122.771499,19.0664987 122.578168,18.8635007 122.3365,18.7185 C122.094832,18.5734993 121.814502,18.4768336 121.4955,18.4285 C121.176498,18.3801664 120.833335,18.356 120.466,18.356 C119.653996,18.356 119.016002,18.5299983 118.552,18.878 C118.087998,19.2260017 117.817334,19.8059959 117.74,20.618 L113.622,20.618 Z M123.134,23.663 C122.959999,23.8176674 122.742501,23.9384996 122.4815,24.0255 C122.220499,24.1125004 121.940168,24.1849997 121.6405,24.243 C121.340832,24.3010003 121.026668,24.3493331 120.698,24.388 C120.369332,24.4266669 120.040668,24.4749997 119.712,24.533 C119.402665,24.5910003 119.098168,24.6683329 118.7985,24.765 C118.498832,24.8616671 118.237834,24.9921658 118.0155,25.1565 C117.793166,25.3208342 117.614334,25.5286654 117.479,25.78 C117.343666,26.0313346 117.276,26.3503314 117.276,26.737 C117.276,27.1043352 117.343666,27.4136654 117.479,27.665 C117.614334,27.9163346 117.797999,28.1144993 118.03,28.2595 C118.262001,28.4045007 118.532665,28.5059997 118.842,28.564 C119.151335,28.6220003 119.470332,28.651 119.799,28.651 C120.611004,28.651 121.239331,28.515668 121.684,28.245 C122.128669,27.974332 122.457332,27.6505019 122.67,27.2735 C122.882668,26.8964981 123.013166,26.5146686 123.0615,26.128 C123.109834,25.7413314 123.134,25.4320012 123.134,25.2 L123.134,23.663 Z M130.442,16.007 L134.357,16.007 L134.357,18.791 L134.415,18.791 C134.608334,18.3269977 134.869332,17.8968353 135.198,17.5005 C135.526668,17.1041647 135.903665,16.7658347 136.329,16.4855 C136.754335,16.2051653 137.208664,15.9876674 137.692,15.833 C138.175336,15.6783326 138.677997,15.601 139.2,15.601 C139.470668,15.601 139.770332,15.6493329 140.099,15.746 L140.099,19.574 C139.905666,19.5353331 139.673668,19.5015001 139.403,19.4725 C139.132332,19.4434999 138.871335,19.429 138.62,19.429 C137.865996,19.429 137.228003,19.5546654 136.706,19.806 C136.183997,20.0573346 135.763502,20.4004978 135.4445,20.8355 C135.125498,21.2705022 134.898334,21.7779971 134.763,22.358 C134.627666,22.9380029 134.56,23.56633 134.56,24.243 L134.56,31 L130.442,31 L130.442,16.007 Z M151.844,23.46 C151.844,22.8413302 151.786001,22.2468362 151.67,21.6765 C151.553999,21.1061638 151.355835,20.6035022 151.0755,20.1685 C150.795165,19.7334978 150.432669,19.380668 149.988,19.11 C149.543331,18.839332 148.98267,18.704 148.306,18.704 C147.62933,18.704 147.059002,18.839332 146.595,19.11 C146.130998,19.380668 145.758835,19.7383311 145.4785,20.183 C145.198165,20.6276689 144.995167,21.1351638 144.8695,21.7055 C144.743833,22.2758362 144.681,22.8703302 144.681,23.489 C144.681,24.0690029 144.748666,24.6489971 144.884,25.229 C145.019334,25.8090029 145.236832,26.3261644 145.5365,26.7805 C145.836168,27.2348356 146.213164,27.6021653 146.6675,27.8825 C147.121836,28.1628347 147.667997,28.303 148.306,28.303 C148.98267,28.303 149.548164,28.167668 150.0025,27.897 C150.456836,27.626332 150.819332,27.2638356 151.09,26.8095 C151.360668,26.3551644 151.553999,25.8380029 151.67,25.258 C151.786001,24.6779971 151.844,24.0786698 151.844,23.46 Z M151.902,29.086 L151.844,29.086 C151.360664,29.8980041 150.727504,30.4828315 149.9445,30.8405 C149.161496,31.1981685 148.277005,31.377 147.291,31.377 C146.169661,31.377 145.183671,31.1595022 144.333,30.7245 C143.482329,30.2894978 142.781503,29.6998371 142.2305,28.9555 C141.679497,28.2111629 141.263835,27.3556715 140.9835,26.389 C140.703165,25.4223285 140.563,24.4170052 140.563,23.373 C140.563,22.3676616 140.703165,21.3961714 140.9835,20.4585 C141.263835,19.5208286 141.679497,18.6943369 142.2305,17.979 C142.781503,17.2636631 143.472663,16.6885022 144.304,16.2535 C145.135337,15.8184978 146.101994,15.601 147.204,15.601 C148.093338,15.601 148.939163,15.7894981 149.7415,16.1665 C150.543837,16.5435019 151.176998,17.0993297 151.641,17.834 L151.699,17.834 L151.699,10.294 L155.817,10.294 L155.817,31 L151.902,31 L151.902,29.086 Z" id="Phishboard"></path>
                </g>
                <g id="Group-6">
                    <g id="Group-3" transform="translate(7.000000, 26.000000)">
                        <mask id="mask-2" fill="white">
                            <use xlink:href="#path-1"></use>
                        </mask>
                        <g id="Clip-2"></g>
                        <path d="M29.7142857,7.83245455 L19.9108571,9.70336364 L16.9154286,5.89009091 C16.536,5.40790909 15.8188571,5.31027273 15.3137143,5.67190909 C15.2268571,5.73409091 15.1497143,5.80772727 15.0845714,5.89009091 L12.0891429,9.70336364 L2.28571429,7.83245455 L2.28571429,2.54045455 C11.4017143,3.48627273 20.5982857,3.48627273 29.7142857,2.54045455 L29.7142857,7.83245455 Z M30.6897143,0.210272727 C25.8211429,0.831 20.912,1.125 16,1.08954545 C11.088,1.125 6.17942857,0.831 1.31028571,0.210272727 C0.684571429,0.123 0.103428571,0.536454545 0.012,1.13372727 C0.004,1.185 0,1.23736364 0,1.28972727 L0,8.72590909 C0,9.24627273 0.385142857,9.69409091 0.919428571,9.79554545 L12.348,11.9773636 C12.78,12.0635455 13.2251429,11.901 13.4868571,11.5617273 L16,8.36263636 L18.5131429,11.5617273 C18.7291429,11.8366364 19.0685714,11.9986364 19.4285714,11.9986364 C19.5034286,11.9991818 19.5782857,11.9915455 19.652,11.9773636 L31.0805714,9.79554545 C31.6148571,9.69409091 32,9.24627273 32,8.72590909 L32,1.28972727 C31.9988571,0.685909091 31.4857143,0.198272727 30.8531429,0.199363636 C30.7982857,0.199363636 30.744,0.203181818 30.6897143,0.210272727 L30.6897143,0.210272727 Z" id="Fill-1" fill="#FFFFFF" mask="url(#mask-2)"></path>
                    </g>
                    <path d="M22.5,21.7142899 C11.4103125,21.7142899 3.990375,19.9462932 2.42775,18.8302952 C3.0583125,18.3171533 4.9573125,17.3577265 8.485875,16.8548702 C8.95725,16.7885847 9.336375,16.4280139 9.430875,15.953729 L11.9953125,3.28918085 C12.0661875,2.71603904 12.5454375,2.28632554 13.1135625,2.28575412 L17.0859375,2.28575412 C17.2828125,2.28803983 17.476875,2.33032546 17.6574375,2.40975389 L20.390625,5.46231972 C21.670875,6.52117492 23.5220625,6.46746073 24.741,5.33603424 L27.2109375,2.5366108 C27.4100625,2.37432538 27.6586875,2.28575412 27.9140625,2.28575412 L31.8864375,2.28575412 C32.4849375,2.29832552 32.9754375,2.77089608 33.0204375,3.37718069 L35.569125,15.9543005 C35.6641875,16.4280139 36.04275,16.7891561 36.514125,16.8548702 C40.262625,17.3897264 42.1723125,18.4400102 42.6448125,18.7742953 C41.25825,19.8862933 33.7764375,21.7142899 22.5,21.7142899 M37.6149375,14.7148742 L35.2378125,3.0057528 C35.024625,1.28975594 33.589125,0.00175830637 31.8864375,7.09158792e-13 L27.9140625,7.09158792e-13 C27.0871875,0.0103297192 26.292375,0.321757719 25.6730625,0.878328127 L23.203125,3.67832299 C22.8178125,3.91089399 22.3509375,3.95717962 21.9285,3.80403705 L19.1953125,0.750899789 C18.5956875,0.265757822 17.8520625,0.00118687884 17.0859375,7.09158792e-13 L13.1135625,7.09158792e-13 C11.44125,-0.00852738905 10.0186875,1.23547033 9.777375,2.91603867 L7.3850625,14.7148742 C3.8165625,15.3314445 0,16.7262991 0,18.8571523 C0,23.0548589 16.6618125,24 22.5,24 C28.3381875,24 45,23.0548589 45,18.8571523 C45,16.7262991 41.1834375,15.3314445 37.6149375,14.7148742" id="Fill-4" fill="#FFFFFF"></path>
                </g>
            </g>
        </g>
    </g>
</svg>