<?xml version="1.0" encoding="UTF-8"?>
<svg width="221px" height="38px" viewBox="0 0 221 38" version="1.1" xmlns="http://www.w3.org/2000/svg" xmlns:xlink="http://www.w3.org/1999/xlink">
    <!-- Generator: Sketch 57.1 (83088) - https://sketch.com -->
    <title>Group 3</title>
    <desc>Created with Sketch.</desc>
    <g id="Page-1" stroke="none" stroke-width="1" fill="none" fill-rule="evenodd">
        <g id="ecommerce-email" transform="translate(-609.000000, -221.000000)">
            <g id="Group-3" transform="translate(609.000000, 221.000000)">
                <path d="M54.827,10.294 L63.121,10.294 C64.3583395,10.294 65.3926625,10.4486651 66.224,10.758 C67.0553375,11.0673349 67.7223308,11.4733308 68.225,11.976 C68.7276692,12.4786692 69.0901656,13.0538301 69.3125,13.7015 C69.5348344,14.3491699 69.646,15.0016634 69.646,15.659 C69.646,16.2196695 69.5493343,16.7513308 69.356,17.254 C69.1626657,17.7566692 68.8871685,18.2013314 68.5295,18.588 C68.1718315,18.9746686 67.7465025,19.2984987 67.2535,19.5595 C66.7604975,19.8205013 66.2143363,19.9896663 65.615,20.067 L65.673,20.125 C65.808334,20.1056666 66.1273308,20.163666 66.63,20.299 C67.1326692,20.434334 67.6594972,20.6904981 68.2105,21.0675 C68.7615028,21.4445019 69.2544978,21.9664967 69.6895,22.6335 C70.1245022,23.3005033 70.342,24.1559948 70.342,25.2 C70.342,26.1473381 70.1680017,26.9786631 69.82,27.694 C69.4719983,28.4093369 68.9838365,29.0134975 68.3555,29.5065 C67.7271635,29.9995025 66.9683378,30.3716654 66.079,30.623 C65.1896622,30.8743346 64.2036721,31 63.121,31 L54.827,31 L54.827,10.294 Z M63.121,19.69 C64.8803421,19.69 66.1949956,19.2985039 67.065,18.5155 C67.9350043,17.7324961 68.37,16.7030064 68.37,15.427 C68.37,14.6729962 68.2250015,14.0398359 67.935,13.5275 C67.6449985,13.0151641 67.2583358,12.5995016 66.775,12.2805 C66.2916642,11.9614984 65.7358365,11.734334 65.1075,11.599 C64.4791635,11.463666 63.8170035,11.396 63.121,11.396 L56.103,11.396 L56.103,19.69 L63.121,19.69 Z M63.121,29.898 C64.9770093,29.898 66.4318281,29.5065039 67.4855,28.7235 C68.5391719,27.9404961 69.066,26.7660078 69.066,25.2 C69.066,24.3106622 68.8823352,23.5808362 68.515,23.0105 C68.1476648,22.4401638 67.6788362,21.9906683 67.1085,21.662 C66.5381638,21.3333317 65.9001702,21.1061673 65.1945,20.9805 C64.4888298,20.8548327 63.7976701,20.792 63.121,20.792 L56.103,20.792 L56.103,29.898 L63.121,29.898 Z M73.155,13.281 L73.155,10.294 L74.257,10.294 L74.257,13.281 L73.155,13.281 Z M73.155,31 L73.155,16.094 L74.257,16.094 L74.257,31 L73.155,31 Z M90.091,16.094 L90.091,30.217 C90.091,31.0483375 89.9943343,31.8554961 89.801,32.6385 C89.6076657,33.4215039 89.274169,34.1126637 88.8005,34.712 C88.326831,35.3113363 87.6743375,35.7898315 86.843,36.1475 C86.0116625,36.5051685 84.9580064,36.684 83.682,36.684 C82.8893294,36.684 82.1450035,36.6018342 81.449,36.4375 C80.7529965,36.2731658 80.1440026,36.0121685 79.622,35.6545 C79.0999974,35.2968315 78.6795016,34.8231696 78.3605,34.2335 C78.0414984,33.6438304 77.8626669,32.9140043 77.824,32.044 L78.926,32.044 C78.9840003,32.7013366 79.148332,33.2619977 79.419,33.726 C79.689668,34.1900023 80.0424978,34.5718318 80.4775,34.8715 C80.9125022,35.1711682 81.400664,35.388666 81.942,35.524 C82.483336,35.659334 83.0633302,35.727 83.682,35.727 C84.7066718,35.727 85.5621632,35.5723349 86.2485,35.263 C86.9348368,34.9536651 87.480998,34.5525025 87.887,34.0595 C88.293002,33.5664975 88.5781658,33.0058365 88.7425,32.3775 C88.9068342,31.7491635 88.989,31.1160032 88.989,30.478 L88.989,27.056 L88.931,27.056 C88.4089974,28.1580055 87.6985045,28.9989971 86.7995,29.579 C85.9004955,30.1590029 84.8130064,30.449 83.537,30.449 C82.4349945,30.449 81.4828373,30.2605019 80.6805,29.8835 C79.8781627,29.5064981 79.2111693,28.9845033 78.6795,28.3175 C78.1478307,27.6504967 77.7515013,26.8723378 77.4905,25.983 C77.2294987,25.0936622 77.099,24.1270052 77.099,23.083 C77.099,22.0969951 77.2391653,21.1593378 77.5195,20.27 C77.7998347,19.3806622 78.210664,18.6025033 78.752,17.9355 C79.293336,17.2684967 79.9651627,16.7368353 80.7675,16.3405 C81.5698373,15.9441647 82.4929948,15.746 83.537,15.746 C84.7163392,15.746 85.8038284,16.0456637 86.7995,16.645 C87.7951716,17.2443363 88.5056645,18.0949945 88.931,19.197 L88.989,19.197 L88.989,16.094 L90.091,16.094 Z M83.537,16.703 C82.6283288,16.703 81.8405033,16.8866648 81.1735,17.254 C80.5064967,17.6213352 79.9555022,18.1046637 79.5205,18.704 C79.0854978,19.3033363 78.7568344,19.9848295 78.5345,20.7485 C78.3121656,21.5121705 78.201,22.2903294 78.201,23.083 C78.201,23.9530044 78.3121656,24.7794961 78.5345,25.5625 C78.7568344,26.3455039 79.0951644,27.0269971 79.5495,27.607 C80.0038356,28.1870029 80.5644967,28.646165 81.2315,28.9845 C81.8985033,29.322835 82.6669957,29.492 83.537,29.492 C84.4456712,29.492 85.2383299,29.3180017 85.915,28.97 C86.5916701,28.6219983 87.1571644,28.1483363 87.6115,27.549 C88.0658356,26.9496637 88.4041656,26.2681705 88.6265,25.5045 C88.8488344,24.7408295 88.96,23.9336709 88.96,23.083 C88.96,22.2516625 88.8488344,21.4493372 88.6265,20.676 C88.4041656,19.9026628 88.0658356,19.2211696 87.6115,18.6315 C87.1571644,18.0418304 86.5916701,17.5730017 85.915,17.225 C85.2383299,16.8769983 84.4456712,16.703 83.537,16.703 Z M96.732,19.197 L102.242,19.197 C103.808008,19.197 104.934163,18.9215028 105.6205,18.3705 C106.306837,17.8194972 106.65,16.9930055 106.65,15.891 C106.65,15.1563297 106.534001,14.5763355 106.302,14.151 C106.069999,13.7256645 105.751002,13.3970012 105.345,13.165 C104.938998,12.9329988 104.470169,12.783167 103.9385,12.7155 C103.406831,12.647833 102.841336,12.614 102.242,12.614 L96.732,12.614 L96.732,19.197 Z M93.977,10.294 L101.488,10.294 C101.932669,10.294 102.411164,10.2988333 102.9235,10.3085 C103.435836,10.3181667 103.943331,10.3471664 104.446,10.3955 C104.948669,10.4438336 105.417498,10.5163328 105.8525,10.613 C106.287502,10.7096671 106.659665,10.8546657 106.969,11.048 C107.64567,11.454002 108.220831,12.0146631 108.6945,12.73 C109.168169,13.4453369 109.405,14.3249948 109.405,15.369 C109.405,16.4710055 109.139169,17.4231627 108.6075,18.2255 C108.075831,19.0278373 107.317005,19.6223314 106.331,20.009 L106.331,20.067 C107.607006,20.337668 108.58333,20.9176622 109.26,21.807 C109.93667,22.6963378 110.275,23.7789936 110.275,25.055 C110.275,25.8090038 110.139668,26.5436631 109.869,27.259 C109.598332,27.9743369 109.197169,28.6074972 108.6655,29.1585 C108.133831,29.7095028 107.476504,30.154165 106.6935,30.4925 C105.910496,30.830835 105.006672,31 103.982,31 L93.977,31 L93.977,10.294 Z M96.732,28.68 L103.634,28.68 C104.852006,28.68 105.804163,28.3513366 106.4905,27.694 C107.176837,27.0366634 107.52,26.1280058 107.52,24.968 C107.52,24.2913299 107.394335,23.7306689 107.143,23.286 C106.891665,22.8413311 106.558169,22.4885013 106.1425,22.2275 C105.726831,21.9664987 105.248336,21.7828339 104.707,21.6765 C104.165664,21.5701661 103.605003,21.517 103.025,21.517 L96.732,21.517 L96.732,28.68 Z M113.581,10.294 L116.046,10.294 L116.046,31 L113.581,31 L113.581,10.294 Z M132.286,31 L129.966,31 L129.966,28.622 L129.908,28.622 C129.385997,29.5500046 128.719004,30.2314978 127.907,30.6665 C127.094996,31.1015022 126.138006,31.319 125.036,31.319 C124.049995,31.319 123.228337,31.1885013 122.571,30.9275 C121.913663,30.6664987 121.382002,30.2943357 120.976,29.811 C120.569998,29.3276642 120.284834,28.7525033 120.1205,28.0855 C119.956166,27.4184967 119.874,26.6790041 119.874,25.867 L119.874,16.007 L122.339,16.007 L122.339,26.157 C122.339,27.0850046 122.609664,27.819664 123.151,28.361 C123.692336,28.902336 124.436662,29.173 125.384,29.173 C126.138004,29.173 126.790497,29.0570012 127.3415,28.825 C127.892503,28.5929988 128.351665,28.2643355 128.719,27.839 C129.086335,27.4136645 129.361832,26.9158362 129.5455,26.3455 C129.729168,25.7751638 129.821,25.15167 129.821,24.475 L129.821,16.007 L132.286,16.007 L132.286,31 Z M146.409,22.068 C146.370333,21.4879971 146.239834,20.9370026 146.0175,20.415 C145.795166,19.8929974 145.495502,19.4435019 145.1185,19.0665 C144.741498,18.6894981 144.296836,18.3898344 143.7845,18.1675 C143.272164,17.9451656 142.70667,17.834 142.088,17.834 C141.449997,17.834 140.874836,17.9451656 140.3625,18.1675 C139.850164,18.3898344 139.410335,18.6943314 139.043,19.081 C138.675665,19.4676686 138.385668,19.9171641 138.173,20.4295 C137.960332,20.9418359 137.834667,21.4879971 137.796,22.068 L146.409,22.068 Z M148.787,26.244 C148.458332,27.9260084 147.733339,29.1923291 146.612,30.043 C145.490661,30.8936709 144.079342,31.319 142.378,31.319 C141.179327,31.319 140.140171,31.1256686 139.2605,30.739 C138.380829,30.3523314 137.641336,29.8110035 137.042,29.115 C136.442664,28.4189965 135.993168,27.5876715 135.6935,26.621 C135.393832,25.6543285 135.224667,24.6006724 135.186,23.46 C135.186,22.3193276 135.359998,21.2753381 135.708,20.328 C136.056002,19.3806619 136.544164,18.5590035 137.1725,17.863 C137.800836,17.1669965 138.545162,16.6256686 139.4055,16.239 C140.265838,15.8523314 141.208328,15.659 142.233,15.659 C143.567007,15.659 144.673829,15.9344972 145.5535,16.4855 C146.433171,17.0365028 147.138831,17.7373291 147.6705,18.588 C148.202169,19.4386709 148.569499,20.3666616 148.7725,21.372 C148.975501,22.3773384 149.057667,23.3343288 149.019,24.243 L137.796,24.243 C137.776667,24.9003366 137.853999,25.5238304 138.028,26.1135 C138.202001,26.7031696 138.482331,27.2251644 138.869,27.6795 C139.255669,28.1338356 139.748664,28.496332 140.348,28.767 C140.947336,29.037668 141.652996,29.173 142.465,29.173 C143.509005,29.173 144.364497,28.9313357 145.0315,28.448 C145.698503,27.9646642 146.138332,27.2300049 146.351,26.244 L148.787,26.244 Z M154.819,24.127 C154.819,24.8230035 154.944665,25.4126642 155.196,25.896 C155.447335,26.3793357 155.780831,26.7708318 156.1965,27.0705 C156.612169,27.3701682 157.100331,27.5924993 157.661,27.7375 C158.221669,27.8825007 158.801664,27.955 159.401,27.955 C159.807002,27.955 160.241998,27.921167 160.706,27.8535 C161.170002,27.785833 161.604998,27.6553343 162.011,27.462 C162.417002,27.2686657 162.755332,27.002835 163.026,26.6645 C163.296668,26.326165 163.432,25.8960026 163.432,25.374 C163.432,24.8133305 163.253168,24.3590017 162.8955,24.011 C162.537832,23.6629983 162.069003,23.3730012 161.489,23.141 C160.908997,22.9089988 160.25167,22.7060009 159.517,22.532 C158.78233,22.3579991 158.038004,22.1646677 157.284,21.952 C156.510663,21.7586657 155.75667,21.5218347 155.022,21.2415 C154.28733,20.9611653 153.630003,20.5986689 153.05,20.154 C152.469997,19.7093311 152.001168,19.1535033 151.6435,18.4865 C151.285832,17.8194967 151.107,17.0123381 151.107,16.065 C151.107,15.0016613 151.334164,14.0785039 151.7885,13.2955 C152.242836,12.5124961 152.83733,11.8600026 153.572,11.338 C154.30667,10.8159974 155.137995,10.4293346 156.066,10.178 C156.994005,9.92666541 157.921995,9.801 158.85,9.801 C159.932672,9.801 160.971828,9.92183213 161.9675,10.1635 C162.963172,10.4051679 163.847663,10.796664 164.621,11.338 C165.394337,11.879336 166.008164,12.5704958 166.4625,13.4115 C166.916836,14.2525042 167.144,15.2723273 167.144,16.471 L162.736,16.471 C162.697333,15.8523302 162.566834,15.340002 162.3445,14.934 C162.122166,14.527998 161.827335,14.2090012 161.46,13.977 C161.092665,13.7449988 160.672169,13.5806671 160.1985,13.484 C159.724831,13.3873328 159.207669,13.339 158.647,13.339 C158.279665,13.339 157.912335,13.3776663 157.545,13.455 C157.177665,13.5323337 156.844168,13.6676657 156.5445,13.861 C156.244832,14.0543343 155.998334,14.2959986 155.805,14.586 C155.611666,14.8760015 155.515,15.2433311 155.515,15.688 C155.515,16.094002 155.592333,16.4226654 155.747,16.674 C155.901667,16.9253346 156.206164,17.1573323 156.6605,17.37 C157.114836,17.5826677 157.743163,17.7953323 158.5455,18.008 C159.347837,18.2206677 160.39666,18.4913317 161.692,18.82 C162.078669,18.8973337 162.615163,19.037499 163.3015,19.2405 C163.987837,19.443501 164.66933,19.7673311 165.346,20.212 C166.02267,20.6566689 166.607498,21.2511629 167.1005,21.9955 C167.593502,22.7398371 167.84,23.6919942 167.84,24.852 C167.84,25.7993381 167.656335,26.6789959 167.289,27.491 C166.921665,28.3030041 166.375504,29.0038304 165.6505,29.5935 C164.925496,30.1831696 164.026505,30.6423317 162.9535,30.971 C161.880495,31.2996683 160.63834,31.464 159.227,31.464 C158.086328,31.464 156.979505,31.3238347 155.9065,31.0435 C154.833495,30.7631653 153.886171,30.3233363 153.0645,29.724 C152.242829,29.1246637 151.590336,28.3610046 151.107,27.433 C150.623664,26.5049954 150.391667,25.4030064 150.411,24.127 L154.819,24.127 Z M170.102,10.294 L174.22,10.294 L174.22,18.095 L174.307,18.095 C174.829003,17.2249956 175.495996,16.5918353 176.308,16.1955 C177.120004,15.7991647 177.912663,15.601 178.686,15.601 C179.788006,15.601 180.69183,15.7508318 181.3975,16.0505 C182.10317,16.3501682 182.658998,16.7658307 183.065,17.2975 C183.471002,17.8291693 183.756166,18.4768295 183.9205,19.2405 C184.084834,20.0041705 184.167,20.8499954 184.167,21.778 L184.167,31 L180.049,31 L180.049,22.532 C180.049,21.2946605 179.855669,20.371503 179.469,19.7625 C179.082331,19.153497 178.396005,18.849 177.41,18.849 C176.288661,18.849 175.476669,19.1824967 174.974,19.8495 C174.471331,20.5165033 174.22,21.613659 174.22,23.141 L174.22,31 L170.102,31 L170.102,10.294 Z M190.953,23.518 C190.953,24.1173363 191.010999,24.7021638 191.127,25.2725 C191.243001,25.8428362 191.441165,26.3551644 191.7215,26.8095 C192.001835,27.2638356 192.373998,27.626332 192.838,27.897 C193.302002,28.167668 193.881997,28.303 194.578,28.303 C195.274003,28.303 195.858831,28.167668 196.3325,27.897 C196.806169,27.626332 197.183165,27.2638356 197.4635,26.8095 C197.743835,26.3551644 197.941999,25.8428362 198.058,25.2725 C198.174001,24.7021638 198.232,24.1173363 198.232,23.518 C198.232,22.9186637 198.174001,22.3290029 198.058,21.749 C197.941999,21.1689971 197.743835,20.6566689 197.4635,20.212 C197.183165,19.7673311 196.806169,19.4048347 196.3325,19.1245 C195.858831,18.8441653 195.274003,18.704 194.578,18.704 C193.881997,18.704 193.302002,18.8441653 192.838,19.1245 C192.373998,19.4048347 192.001835,19.7673311 191.7215,20.212 C191.441165,20.6566689 191.243001,21.1689971 191.127,21.749 C191.010999,22.3290029 190.953,22.9186637 190.953,23.518 Z M186.835,23.518 C186.835,22.3193273 187.018665,21.2318382 187.386,20.2555 C187.753335,19.2791618 188.27533,18.4478368 188.952,17.7615 C189.62867,17.0751632 190.440662,16.5435019 191.388,16.1665 C192.335338,15.7894981 193.398661,15.601 194.578,15.601 C195.757339,15.601 196.825495,15.7894981 197.7825,16.1665 C198.739505,16.5435019 199.55633,17.0751632 200.233,17.7615 C200.90967,18.4478368 201.431665,19.2791618 201.799,20.2555 C202.166335,21.2318382 202.35,22.3193273 202.35,23.518 C202.35,24.7166727 202.166335,25.7993285 201.799,26.766 C201.431665,27.7326715 200.90967,28.5591632 200.233,29.2455 C199.55633,29.9318368 198.739505,30.4586648 197.7825,30.826 C196.825495,31.1933352 195.757339,31.377 194.578,31.377 C193.398661,31.377 192.335338,31.1933352 191.388,30.826 C190.440662,30.4586648 189.62867,29.9318368 188.952,29.2455 C188.27533,28.5591632 187.753335,27.7326715 187.386,26.766 C187.018665,25.7993285 186.835,24.7166727 186.835,23.518 Z M212.587,28.303 C213.26367,28.303 213.829164,28.167668 214.2835,27.897 C214.737836,27.626332 215.105165,27.2735022 215.3855,26.8385 C215.665835,26.4034978 215.863999,25.8960029 215.98,25.316 C216.096001,24.7359971 216.154,24.1463363 216.154,23.547 C216.154,22.9476637 216.091167,22.3580029 215.9655,21.778 C215.839833,21.1979971 215.632001,20.6808356 215.342,20.2265 C215.051999,19.7721644 214.679836,19.4048347 214.2255,19.1245 C213.771164,18.8441653 213.215337,18.704 212.558,18.704 C211.88133,18.704 211.315836,18.8441653 210.8615,19.1245 C210.407164,19.4048347 210.039835,19.7673311 209.7595,20.212 C209.479165,20.6566689 209.281001,21.1689971 209.165,21.749 C209.048999,22.3290029 208.991,22.9283302 208.991,23.547 C208.991,24.1463363 209.053833,24.7359971 209.1795,25.316 C209.305167,25.8960029 209.508165,26.4034978 209.7885,26.8385 C210.068835,27.2735022 210.440998,27.626332 210.905,27.897 C211.369002,28.167668 211.929663,28.303 212.587,28.303 Z M205.018,16.007 L208.933,16.007 L208.933,17.921 L208.991,17.921 C209.493669,17.1089959 210.131663,16.5193352 210.905,16.152 C211.678337,15.7846648 212.528995,15.601 213.457,15.601 C214.636339,15.601 215.651329,15.8233311 216.502,16.268 C217.352671,16.7126689 218.058331,17.3023297 218.619,18.037 C219.179669,18.7716703 219.595332,19.6271618 219.866,20.6035 C220.136668,21.5798382 220.272,22.5996613 220.272,23.663 C220.272,24.6683384 220.136668,25.6349954 219.866,26.563 C219.595332,27.4910046 219.184503,28.3126631 218.6335,29.028 C218.082497,29.7433369 217.396171,30.3136645 216.5745,30.739 C215.752829,31.1643355 214.791006,31.377 213.689,31.377 C212.760995,31.377 211.905504,31.1885019 211.1225,30.8115 C210.339496,30.4344981 209.696669,29.8786703 209.194,29.144 L209.136,29.144 L209.136,36.249 L205.018,36.249 L205.018,16.007 Z" id="BigBlueShop" fill="#212121" fill-rule="nonzero"></path>
                <path d="M34.882823,9.66666667 C34.882823,8.74611111 34.1735348,8 33.2984114,8 C32.4232881,8 31.7139998,8.74611111 31.7139998,9.66666667 C31.7139998,11.505 30.1148004,13 28.1490737,13 C26.183347,13 24.5841475,11.505 24.5841475,9.66666667 C24.5841475,8.74611111 23.8748593,8 22.9997359,8 C22.1246126,8 21.4153243,8.74611111 21.4153243,9.66666667 C21.4153243,11.505 19.8161249,13 17.8503982,13 C15.8846715,13 14.2854721,11.505 14.2854721,9.66666667 C14.2854721,8.74611111 13.5761838,8 12.7010604,8 C11.8259371,8 11.1166488,8.74611111 11.1166488,9.66666667 C11.1166488,13.9083333 4.3818432,14.1177778 4,9.95333333 L6.64438298,3 L39.355617,3 L42,9.95333333 C41.6186849,14.1077778 34.882823,13.9272222 34.882823,9.66666667 L34.882823,9.66666667 Z M39,35 L35.8,35 L35.8,20.9221373 C35.8,20.0581736 35.0837333,19.3579303 34.2,19.3579303 L11.8,19.3579303 C10.9162667,19.3579303 10.2,20.0581736 10.2,20.9221373 L10.2,35 L7,35 L7,16.2185669 C9.03466667,16.3160691 11.2,15.5271874 12.6,14 C13.8485333,15.3624243 15.7162667,16.2295163 17.8,16.2295163 C19.8837333,16.2295163 21.7514667,15.3624243 23,14 C24.2485333,15.3624243 26.1162667,16.2295163 28.2,16.2295163 C30.2837333,16.2295163 32.1514667,15.3624243 33.4,14 C34.7973333,15.5251018 36.9616,16.3186761 39,16.2185669 L39,35 Z M13,35 L33,35 L33,22 L13,22 L13,35 Z M41.6710714,0.994861111 C41.42625,0.39425 40.8353571,0 40.1785714,0 L4.82142857,0 C4.16464286,0 3.57375,0.39425 3.32892857,0.994861111 L0.114642857,8.91152778 C0.0391071429,9.09888889 0,9.29838889 0,9.5 C0,11.7578333 1.29107143,13.7296111 3.21428571,14.8511389 L3.21428571,36.4166667 C3.21428571,37.2911944 3.93375,38 4.82142857,38 L40.1785714,38 C41.06625,38 41.7857143,37.2911944 41.7857143,36.4166667 L41.7857143,14.8511389 C43.7089286,13.7296111 45,11.7578333 45,9.5 C45,9.29838889 44.9608929,9.09888889 44.8853571,8.91152778 L41.6710714,0.994861111 Z" id="Fill-1" fill="#5AAAFA"></path>
            </g>
        </g>
    </g>
</svg>